<svg xmlns="http://www.w3.org/2000/svg" version="1.0" preserveAspectRatio="xMidYMid meet" viewBox="255.5 507.9 540.5 487.6">

<g transform="translate(0.000000,1536.000000) scale(0.100000,-0.100000)" fill="#000000" stroke="none">
<path d="M2820 10266 c-25 -7 -60 -21 -79 -30 -54 -28 -130 -111 -159 -174 l-27 -57 0 -2165 0 -2165 27 -57 c37 -79 98 -142 177 -181 l66 -32 570 0 570 0 62 34 c77 41 146 113 181 189 l27 57 5 725 c5 720 5 725 27 765 25 47 84 105 133 131 33 18 70 19 660 19 623 0 625 0 666 -22 22 -12 57 -40 78 -63 75 -83 70 -34 76 -835 l5 -720 31 -66 c43 -89 93 -142 172 -181 l67 -33 765 0 765 0 57 28 c74 36 159 128 190 204 l23 58 3 1581 2 1580 -52 13 c-133 30 -252 161 -287 312 -23 96 -12 266 23 376 6 19 2 22 -47 33 -72 15 -170 62 -232 113 -141 115 -221 279 -232 480 l-6 98 -481 -3 -481 -3 -67 -33 c-82 -40 -157 -119 -190 -200 -23 -57 -23 -61 -28 -612 l-5 -555 -23 -47 c-31 -63 -99 -121 -165 -142 -48 -15 -115 -16 -653 -14 l-599 3 -55 31 c-59 34 -112 100 -130 162 -6 23 -10 230 -10 547 0 429 -2 520 -16 570 -30 118 -103 206 -214 259 l-65 31 -540 2 c-410 1 -551 -2 -585 -11z"/>
</g>
</svg>